# xmcd
#
# Track frame offsets: 
#        150
#        12525
#        23760
#        35497
#        47563
#        58233
#        71580
#        81926
#        93793
#        106815
#        120948
#        134639
#        144711
#        157179
#        167925
#        178929
#        192900
#        204973
#        216814
#        228057
#        241283
#        254927
#        264293
#        275880
#        291331
#        303553
#        316887
#        329482
#        345294
#
# Disc length: 4798 seconds
#
# Revision: 3
# Processed by: cddbd v1.5.2PL0 Copyright (c) Steve Scherf et al.
# Submitted via: ExactAudioCopyFreeDBPlugin 1.0
#
DISCID=b712bc1d
DTITLE=Various Artist - Sweet Soul Music:  411 Scorching Classics, 19
DTITLE=61-1975 [Bear Family]
DYEAR=2009
DGENRE=Soul
TTITLE0=Smokey Robinson and The Miracles - I Second That Emotion
TTITLE1=Wilson Pickett - I'm in Love
TTITLE2=Inez and Charlie Foxx - (1-2-3-4-5-6-7) Count the Days
TTITLE3=Otis Redding - (Sittin' On) The Dock of the Bay
TTITLE4=The Impressions - We're a Winner
TTITLE5=Sly and The Family Stone - Dance to the Music
TTITLE6=Gladys Knight and The Pips - The End of Our Road
TTITLE7=The Intruders - Cowboys to Girls
TTITLE8=Sam and Dave - I Thank You
TTITLE9=Archie Bell and The Drells - Tighten Up, Part 1
TTITLE10=Percy Sledge - Take Time to Know Her
TTITLE11=Marvin Gaye and Tammi Terrell - Ain't Nothing Like the Real T
TTITLE11=hing
TTITLE12=Peggy Scott and Jo Jo Benson - Lover's Holiday
TTITLE13=Aretha Franklin - (Sweet Sweet Baby) Since You've Been Gone
TTITLE14=Arthur Conley - Funky Street
TTITLE15=The Dells - Stay in My Corner (single edit)
TTITLE16=Eddie Floyd - I've Never Found a Girl (To Love Me Like You)
TTITLE17=Hugh Masekela - Grazing in the Grass
TTITLE18=Clarence Carter - Slip Away
TTITLE19=Barbara Acklin - Love Makes a Woman
TTITLE20=James Brown - Say It Loud - I'm Black and I'm Proud (Part 1)
TTITLE21=Betty Wright - Girls Can't Do What the Guys Do
TTITLE22=The O'Kaysions - Girl Watcher
TTITLE23=Al Wilson - The Snake
TTITLE24=Jerry Butler - Hey, Western Union Man
TTITLE25=Young-Holt Unlimited - Soulful Strut
TTITLE26=Johnnie Taylor - Who's Making Love
TTITLE27=The Temptations - Cloud Nine
TTITLE28=Marvin Gaye - I Heard it Through the Grapevine
EXTD=
EXTT0=
EXTT1=
EXTT2=
EXTT3=
EXTT4=
EXTT5=
EXTT6=
EXTT7=
EXTT8=
EXTT9=
EXTT10=
EXTT11=
EXTT12=
EXTT13=
EXTT14=
EXTT15=
EXTT16=
EXTT17=
EXTT18=
EXTT19=
EXTT20=
EXTT21=
EXTT22=
EXTT23=
EXTT24=
EXTT25=
EXTT26=
EXTT27=
EXTT28=
PLAYORDER=
